<svg width="250" height="250" viewBox="0 0 250 250" fill="none" xmlns="http://www.w3.org/2000/svg">
<path d="M125.613 35.0237C132.107 34.7007 137.808 37.6864 141.943 43.2563C175.271 88.237 208.589 133.218 241.803 178.267C248.663 187.576 246.47 198.716 237.094 204.844C227.864 210.864 215.512 208.466 208.454 198.971C185.483 168.057 162.617 137.065 139.708 106.102C139.291 105.515 138.873 104.937 138.435 104.36C129.351 92.319 120.371 92.2994 111.454 104.34C88.3164 135.587 65.1681 166.823 42.1033 198.119C38.2922 203.288 33.6459 207.125 26.7859 207.81C18.3703 208.662 11.6148 205.882 7.17722 199C2.63526 191.952 3.02159 184.874 7.96031 178.149C19.049 163.074 30.242 148.068 41.4037 133.041C63.4035 103.42 85.4555 73.8177 107.393 44.1569C111.642 38.401 116.999 34.9063 125.613 35.0237Z" fill="#FF4879"/>
</svg>
